<?xml version="1.0" encoding="UTF-8"?>
<svg id="_图层_2" data-name="图层 2" xmlns="http://www.w3.org/2000/svg" viewBox="0 0 364.51 21.01">
  <defs>
    <style>
      .cls-1 {
        fill: #fff;
      }
    </style>
  </defs>
  <g id="_图层_1-2" data-name="图层 1">
    <g>
      <path class="cls-1" d="M35.62.44c-5.67,0-10.29,4.61-10.29,10.29s4.61,10.29,10.29,10.29,10.29-4.61,10.29-10.29S41.29.44,35.62.44ZM35.62,18.21c-4.13,0-7.49-3.36-7.49-7.49s3.36-7.49,7.49-7.49,7.49,3.36,7.49,7.49-3.36,7.49-7.49,7.49Z"/>
      <path class="cls-1" d="M66.11.44c-5.67,0-10.29,4.61-10.29,10.29s4.61,10.29,10.29,10.29,10.29-4.61,10.29-10.29S71.78.44,66.11.44ZM66.11,18.21c-4.13,0-7.49-3.36-7.49-7.49s3.36-7.49,7.49-7.49,7.49,3.36,7.49,7.49-3.36,7.49-7.49,7.49Z"/>
      <path class="cls-1" d="M98.23.23h-10.08v.1h-.11v20.58h2.8v-7.4h7.38c3.66,0,6.64-2.98,6.64-6.64S101.9.23,98.23.23ZM98.23,10.72h-7.38V3.03h7.38c2.12,0,3.85,1.72,3.85,3.84s-1.72,3.85-3.85,3.85Z"/>
      <path class="cls-1" d="M162.71,6.8c0-3.66-2.98-6.64-6.64-6.64h-10.34v.1h-.11v20.58h2.8v-7.4h6.04l5.29,7.4h3.51l-5.43-7.64c2.81-.78,4.87-3.35,4.87-6.4ZM148.42,2.95h7.64c2.12,0,3.85,1.72,3.85,3.85s-1.72,3.85-3.85,3.85h-7.64V2.95Z"/>
      <polygon class="cls-1" points="189.59 .21 172.52 .21 172.52 3.01 179.64 3.01 179.64 20.84 182.44 20.84 182.44 3.01 189.59 3.01 189.59 .21"/>
      <polygon class="cls-1" points=".14 21.01 16.19 21.01 16.19 18.21 2.8 18.21 2.8 .08 0 .08 0 21.01 .14 21.01"/>
      <path class="cls-1" d="M123.39,3.29l7.37,17.55h3.51L125.22.28v-.07h-3.58v.07h0s-9.05,20.56-9.05,20.56h3.44l7.37-17.55Z"/>
      <rect class="cls-1" x="328.45" width="2.8" height="20.93"/>
      <path class="cls-1" d="M298.05,0v20.8h7.93c5.63,0,10.2-4.58,10.2-10.2v-.4c0-5.63-4.58-10.2-10.2-10.2h-7.93ZM313.39,10.6c0,4.08-3.32,7.4-7.4,7.4h-5.14V2.8h5.14c4.08,0,7.4,3.32,7.4,7.41v.4Z"/>
      <path class="cls-1" d="M284.07,12.85c0,2.84-2.31,5.16-5.16,5.16h-1.71c-2.84,0-5.16-2.31-5.16-5.16V.07s-2.78,0-2.78,0v12.77c-.01,4.39,3.56,7.96,7.94,7.96h1.71c4.39,0,7.96-3.57,7.96-7.96V.07s-2.78,0-2.78,0v12.77Z"/>
      <polygon class="cls-1" points="241.47 2.87 248.69 2.87 248.73 20.85 251.53 20.85 251.49 2.87 258.83 2.87 258.83 .08 241.47 .08 241.47 2.87"/>
      <path class="cls-1" d="M224.66,8.82c-3.34-.66-4.7-1.12-4.7-2.95,0-2.04,2.26-3.11,4.49-3.11,2.62,0,4.51,1.71,4.53,1.72l1.96-1.91c-.11-.1-2.7-2.48-6.48-2.48-4.16,0-7.29,2.49-7.29,5.79,0,4.2,4.01,4.99,6.93,5.57,3.43.68,4.93,1.19,4.93,3.25,0,3.14-3.17,3.48-4.53,3.48-2.94,0-5.76-2.32-5.79-2.34l-.92,1.01-.92,1.01c.15.12,3.62,3,7.63,3,4.45,0,7.33-2.42,7.33-6.16,0-4.45-4.14-5.27-7.16-5.87Z"/>
      <path class="cls-1" d="M354.22.36c-5.67,0-10.29,4.61-10.29,10.29s4.61,10.29,10.29,10.29,10.29-4.61,10.29-10.29-4.61-10.29-10.29-10.29ZM354.22,18.13c-4.13,0-7.49-3.36-7.49-7.49s3.36-7.49,7.49-7.49,7.49,3.36,7.49,7.49-3.36,7.49-7.49,7.49Z"/>
      <rect class="cls-1" x="122.03" y="18.21" width="2.8" height="2.71"/>
    </g>
  </g>
</svg>